<svg display="none" xmlns="http://www.w3.org/2000/svg">
    <symbol id="play-arrow" viewBox="0 0 124.512 124.512">
        <g>
            <path d="M113.956,57.006l-97.4-56.2c-4-2.3-9,0.6-9,5.2v112.5c0,4.6,5,7.5,9,5.2l97.4-56.2
            C117.956,65.105,117.956,59.306,113.956,57.006z"/>
        </g>
    </symbol>

    <symbol id="calendar" viewBox="0 0 477.867 477.867" preserveAspectRatio="none">
        <g>
            <path d="M119.467,0C110.041,0,102.4,7.641,102.4,17.067V51.2h34.133V17.067C136.533,7.641,128.892,0,119.467,0z"/>
            <path d="M358.4,0c-9.426,0-17.067,7.641-17.067,17.067V51.2h34.133V17.067C375.467,7.641,367.826,0,358.4,0z"/>
            <path d="M426.667,51.2h-51.2v68.267c0,9.426-7.641,17.067-17.067,17.067s-17.067-7.641-17.067-17.067V51.2h-204.8v68.267
                c0,9.426-7.641,17.067-17.067,17.067s-17.067-7.641-17.067-17.067V51.2H51.2C22.923,51.2,0,74.123,0,102.4v324.267
                c0,28.277,22.923,51.2,51.2,51.2h375.467c28.277,0,51.2-22.923,51.2-51.2V102.4C477.867,74.123,454.944,51.2,426.667,51.2z
                 M443.733,426.667c0,9.426-7.641,17.067-17.067,17.067H51.2c-9.426,0-17.067-7.641-17.067-17.067V204.8h409.6V426.667z"/>
                 <path d="M136.533,238.933H102.4c-9.426,0-17.067,7.641-17.067,17.067s7.641,17.067,17.067,17.067h34.133
                c9.426,0,17.067-7.641,17.067-17.067S145.959,238.933,136.533,238.933z"/>
                <path d="M256,238.933h-34.133c-9.426,0-17.067,7.641-17.067,17.067s7.641,17.067,17.067,17.067H256
                c9.426,0,17.067-7.641,17.067-17.067S265.426,238.933,256,238.933z"/>
                <path d="M375.467,238.933h-34.133c-9.426,0-17.067,7.641-17.067,17.067s7.641,17.067,17.067,17.067h34.133
                c9.426,0,17.067-7.641,17.067-17.067S384.892,238.933,375.467,238.933z"/>
                <path d="M136.533,307.2H102.4c-9.426,0-17.067,7.641-17.067,17.067c0,9.426,7.641,17.067,17.067,17.067h34.133
                c9.426,0,17.067-7.641,17.067-17.067C153.6,314.841,145.959,307.2,136.533,307.2z"/>
                <path d="M256,307.2h-34.133c-9.426,0-17.067,7.641-17.067,17.067c0,9.426,7.641,17.067,17.067,17.067H256
                c9.426,0,17.067-7.641,17.067-17.067C273.067,314.841,265.426,307.2,256,307.2z"/>
                <path d="M375.467,307.2h-34.133c-9.426,0-17.067,7.641-17.067,17.067c0,9.426,7.641,17.067,17.067,17.067h34.133
                c9.426,0,17.067-7.641,17.067-17.067C392.533,314.841,384.892,307.2,375.467,307.2z"/>
                <path d="M136.533,375.467H102.4c-9.426,0-17.067,7.641-17.067,17.067S92.974,409.6,102.4,409.6h34.133
                c9.426,0,17.067-7.641,17.067-17.067S145.959,375.467,136.533,375.467z"/>
                <path d="M256,375.467h-34.133c-9.426,0-17.067,7.641-17.067,17.067s7.641,17.067,17.067,17.067H256
                c9.426,0,17.067-7.641,17.067-17.067S265.426,375.467,256,375.467z"/>
                <path d="M375.467,375.467h-34.133c-9.426,0-17.067,7.641-17.067,17.067s7.641,17.067,17.067,17.067h34.133
                c9.426,0,17.067-7.641,17.067-17.067S384.892,375.467,375.467,375.467z"/>
        </g>
    </symbol>

    <symbol id="company" viewBox="0 0 24 24" >
        <g>
            <path d="m13.03 1.87-10.99-1.67c-.51-.08-1.03.06-1.42.39-.39.34-.62.83-.62 1.34v21.07c0 .55.45 1 1 1h3.25v-5.25c0-.97.78-1.75 1.75-1.75h2.5c.97 0 1.75.78 1.75 1.75v5.25h4.25v-20.4c0-.86-.62-1.59-1.47-1.73zm-7.53 12.88h-1.5c-.414 0-.75-.336-.75-.75s.336-.75.75-.75h1.5c.414 0 .75.336.75.75s-.336.75-.75.75zm0-3h-1.5c-.414 0-.75-.336-.75-.75s.336-.75.75-.75h1.5c.414 0 .75.336.75.75s-.336.75-.75.75zm0-3h-1.5c-.414 0-.75-.336-.75-.75s.336-.75.75-.75h1.5c.414 0 .75.336.75.75s-.336.75-.75.75zm0-3h-1.5c-.414 0-.75-.336-.75-.75s.336-.75.75-.75h1.5c.414 0 .75.336.75.75s-.336.75-.75.75zm5 9h-1.5c-.414 0-.75-.336-.75-.75s.336-.75.75-.75h1.5c.414 0 .75.336.75.75s-.336.75-.75.75zm0-3h-1.5c-.414 0-.75-.336-.75-.75s.336-.75.75-.75h1.5c.414 0 .75.336.75.75s-.336.75-.75.75zm0-3h-1.5c-.414 0-.75-.336-.75-.75s.336-.75.75-.75h1.5c.414 0 .75.336.75.75s-.336.75-.75.75zm0-3h-1.5c-.414 0-.75-.336-.75-.75s.336-.75.75-.75h1.5c.414 0 .75.336.75.75s-.336.75-.75.75z"/>
            <path d="m22.62 10.842-7.12-1.491v14.649h6.75c.965 0 1.75-.785 1.75-1.75v-9.698c0-.826-.563-1.529-1.38-1.71zm-2.37 10.158h-1.5c-.414 0-.75-.336-.75-.75s.336-.75.75-.75h1.5c.414 0 .75.336.75.75s-.336.75-.75.75zm0-3h-1.5c-.414 0-.75-.336-.75-.75s.336-.75.75-.75h1.5c.414 0 .75.336.75.75s-.336.75-.75.75zm0-3h-1.5c-.414 0-.75-.336-.75-.75s.336-.75.75-.75h1.5c.414 0 .75.336.75.75s-.336.75-.75.75z"/>
        </g>
    </symbol>

    <symbol id="download" viewBox="0 0 480 480">
        <g>
            <path d="M378.528,214.688l-21.088-24c-5.824-6.624-15.904-7.264-22.56-1.472L272,244.32V16c0-8.832-7.168-16-16-16h-32
			c-8.832,0-16,7.168-16,16v228.32l-62.88-55.104c-6.624-5.792-16.704-5.152-22.56,1.472l-21.088,23.968
			c-5.856,6.656-5.184,16.8,1.472,22.624l126.528,110.752c6.048,5.28,15.04,5.28,21.088,0L377.056,237.28
            C383.712,231.456,384.384,221.312,378.528,214.688z"/>
            <path d="M416,416H64c-8.832,0-16,7.168-16,16v32c0,8.832,7.168,16,16,16h352c8.832,0,16-7.168,16-16v-32
			C432,423.168,424.832,416,416,416z"/>
        </g>
    </symbol>

    <symbol id="user" viewBox="0 0 409.165 409.164">
        <g>
            <path d="M204.583,216.671c50.664,0,91.74-48.075,91.74-107.378c0-82.237-41.074-107.377-91.74-107.377
			c-50.668,0-91.74,25.14-91.74,107.377C112.844,168.596,153.916,216.671,204.583,216.671z"/>
		    <path d="M407.164,374.717L360.88,270.454c-2.117-4.771-5.836-8.728-10.465-11.138l-71.83-37.392
			c-1.584-0.823-3.502-0.663-4.926,0.415c-20.316,15.366-44.203,23.488-69.076,23.488c-24.877,0-48.762-8.122-69.078-23.488
			c-1.428-1.078-3.346-1.238-4.93-0.415L58.75,259.316c-4.631,2.41-8.346,6.365-10.465,11.138L2.001,374.717
			c-3.191,7.188-2.537,15.412,1.75,22.005c4.285,6.592,11.537,10.526,19.4,10.526h362.861c7.863,0,15.117-3.936,19.402-10.527
			C409.699,390.129,410.355,381.902,407.164,374.717z"/>
        </g>
    </symbol>

    <symbol id="inbox" viewBox="0 0 477.867 477.867">
        <g>
            <path d="M460.8,68.267H17.067l221.867,182.75L463.309,68.779C462.488,68.539,461.649,68.368,460.8,68.267z"/>
            <path d="M249.702,286.31c-6.288,5.149-15.335,5.149-21.623,0L0,98.406v294.127c0,9.426,7.641,17.067,17.067,17.067H460.8
			c9.426,0,17.067-7.641,17.067-17.067V100.932L249.702,286.31z"/>
        </g>
    </symbol>

    <symbol id="team" viewBox="0 0 549.907 549.908">
        <g>
            <path d="M110.534,220.962c0-49.027,39.741-88.768,88.768-88.768s88.768,39.741,88.768,88.768c0,49.026-39.741,88.768-88.768,88.768
		    S110.534,269.989,110.534,220.962z M236.968,315.783h-75.327c-62.668,0-113.655,50.986-113.655,113.646v92.143l0.236,1.437
		    l6.36,1.985c59.796,18.679,111.764,24.914,154.531,24.914c83.531,0,131.94-23.82,134.938-25.333l5.94-3.015l0.626,0.006v-92.137
		    C350.617,366.769,299.631,315.783,236.968,315.783z M350.617,177.533c49.024,0,88.768-39.741,88.768-88.768
		    C439.385,39.741,399.642,0,350.617,0c-49.023,0-88.768,39.741-88.768,88.765C261.85,137.792,301.594,177.533,350.617,177.533z
		    M388.28,183.585h-75.326c-1.797,0-3.547,0.189-5.32,0.275c6.81,14.295,10.74,30.225,10.74,47.094
		    c0,31.129-13.057,59.205-33.922,79.23c48.823,14.523,86.144,55.986,94.638,107.08c71.999-3.145,113.504-23.49,116.265-24.885
		    l5.94-3.015l0.626,0.012v-92.137C501.933,234.575,450.946,183.585,388.28,183.585z"/>
        </g>
    </symbol>

    <symbol id="settings" viewBox="0 0 512 512">
        <g>
            <path d="m499.953125 197.703125-39.351563-8.554687c-3.421874-10.476563-7.660156-20.695313-12.664062-30.539063l21.785156-33.886719c3.890625-6.054687 3.035156-14.003906-2.050781-19.089844l-61.304687-61.304687c-5.085938-5.085937-13.035157-5.941406-19.089844-2.050781l-33.886719 21.785156c-9.84375-5.003906-20.0625-9.242188-30.539063-12.664062l-8.554687-39.351563c-1.527344-7.03125-7.753906-12.046875-14.949219-12.046875h-86.695312c-7.195313 0-13.421875 5.015625-14.949219 12.046875l-8.554687 39.351563c-10.476563 3.421874-20.695313 7.660156-30.539063 12.664062l-33.886719-21.785156c-6.054687-3.890625-14.003906-3.035156-19.089844 2.050781l-61.304687 61.304687c-5.085937 5.085938-5.941406 13.035157-2.050781 19.089844l21.785156 33.886719c-5.003906 9.84375-9.242188 20.0625-12.664062 30.539063l-39.351563 8.554687c-7.03125 1.53125-12.046875 7.753906-12.046875 14.949219v86.695312c0 7.195313 5.015625 13.417969 12.046875 14.949219l39.351563 8.554687c3.421874 10.476563 7.660156 20.695313 12.664062 30.539063l-21.785156 33.886719c-3.890625 6.054687-3.035156 14.003906 2.050781 19.089844l61.304687 61.304687c5.085938 5.085937 13.035157 5.941406 19.089844 2.050781l33.886719-21.785156c9.84375 5.003906 20.0625 9.242188 30.539063 12.664062l8.554687 39.351563c1.527344 7.03125 7.753906 12.046875 14.949219 12.046875h86.695312c7.195313 0 13.421875-5.015625 14.949219-12.046875l8.554687-39.351563c10.476563-3.421874 20.695313-7.660156 30.539063-12.664062l33.886719 21.785156c6.054687 3.890625 14.003906 3.039063 19.089844-2.050781l61.304687-61.304687c5.085937-5.085938 5.941406-13.035157 2.050781-19.089844l-21.785156-33.886719c5.003906-9.84375 9.242188-20.0625 12.664062-30.539063l39.351563-8.554687c7.03125-1.53125 12.046875-7.753906 12.046875-14.949219v-86.695312c0-7.195313-5.015625-13.417969-12.046875-14.949219zm-152.160156 58.296875c0 50.613281-41.179688 91.792969-91.792969 91.792969s-91.792969-41.179688-91.792969-91.792969 41.179688-91.792969 91.792969-91.792969 91.792969 41.179688 91.792969 91.792969zm0 0"/>
        </g>
    </symbol>

    <symbol id="feed" viewBox="0 0 331.947 331.947">
        <g>
            <circle cx="46.507" cy="285.333" r="46.507"/>
            <path d="M0,120.64v60.373c83.307,0,150.827,67.627,150.827,150.827H211.2C211.2,215.253,116.587,120.64,0,120.64z"/>
			<path d="M0,0v60.373c149.973,0,271.573,121.6,271.573,271.573h60.373C331.84,148.587,183.253,0,0,0z"/>
        </g>
    </symbol>

    <symbol id="arrow-left" viewBox="0 0 8 14">
        <g>
            <path d="M7 13L1 7L7 1" stroke="white" stroke-width="2" stroke-linecap="round" stroke-linejoin="round"/>
        </g>
    </symbol>

    <symbol id="arrow-right" viewBox="0 0 8 14">
        <g>
            <path d="M1 13L7 7L1 1" stroke="white" stroke-width="2" stroke-linecap="round" stroke-linejoin="round"/>
        </g>
    </symbol>

    <symbol id="twitter" viewBox="0 0 512 512" preserveAspectRatio="none">
        <g>
            <path d="M512,97.248c-19.04,8.352-39.328,13.888-60.48,16.576c21.76-12.992,38.368-33.408,46.176-58.016
			c-20.288,12.096-42.688,20.64-66.56,25.408C411.872,60.704,384.416,48,354.464,48c-58.112,0-104.896,47.168-104.896,104.992
			c0,8.32,0.704,16.32,2.432,23.936c-87.264-4.256-164.48-46.08-216.352-109.792c-9.056,15.712-14.368,33.696-14.368,53.056
			c0,36.352,18.72,68.576,46.624,87.232c-16.864-0.32-33.408-5.216-47.424-12.928c0,0.32,0,0.736,0,1.152
			c0,51.008,36.384,93.376,84.096,103.136c-8.544,2.336-17.856,3.456-27.52,3.456c-6.72,0-13.504-0.384-19.872-1.792
			c13.6,41.568,52.192,72.128,98.08,73.12c-35.712,27.936-81.056,44.768-130.144,44.768c-8.608,0-16.864-0.384-25.12-1.44
			C46.496,446.88,101.6,464,161.024,464c193.152,0,298.752-160,298.752-298.688c0-4.64-0.16-9.12-0.384-13.568
			C480.224,136.96,497.728,118.496,512,97.248z"/>
        </g>
    </symbol>

    <symbol id="facebook" viewBox="0 0 24 24" preserveAspectRatio="none">
        <g>
            <path d="m15.997 3.985h2.191v-3.816c-.378-.052-1.678-.169-3.192-.169-3.159 0-5.323 1.987-5.323 5.639v3.361h-3.486v4.266h3.486v10.734h4.274v-10.733h3.345l.531-4.266h-3.877v-2.939c.001-1.233.333-2.077 2.051-2.077z"/>
        </g>
    </symbol>

    <symbol id="linkedin" viewBox="0 0 24 24" preserveAspectRatio="none">
        <g>
            <path d="m23.994 24v-.001h.006v-8.802c0-4.306-.927-7.623-5.961-7.623-2.42 0-4.044 1.328-4.707 2.587h-.07v-2.185h-4.773v16.023h4.97v-7.934c0-2.089.396-4.109 2.983-4.109 2.549 0 2.587 2.384 2.587 4.243v7.801z"/>
            <path d="m.396 7.977h4.976v16.023h-4.976z"/>
            <path d="m2.882 0c-1.591 0-2.882 1.291-2.882 2.882s1.291 2.909 2.882 2.909 2.882-1.318 2.882-2.909c-.001-1.591-1.292-2.882-2.882-2.882z"/>
        </g>
    </symbol>

    <symbol id="social-ball" viewBox="0 0 512 512" preserveAspectRatio="none">
        <g>
            <rect x="21.508" y="238.654" transform="matrix(0.7077 -0.7065 0.7065 0.7077 -106.0068 255.2104)" width="467.85" height="34.133"/>
            <rect x="238.367" y="21.801" transform="matrix(0.7065 -0.7077 0.7077 0.7065 -106.0111 255.8257)" width="34.133" height="467.85"/>
            <path d="M308.787,312.769c-47.024,47.019-69.541,111.866-61.77,177.903l33.894-3.988c-6.542-55.592,12.419-110.188,52.008-149.783
            c41.045-41.045,99.573-60.092,156.461-50.967l5.41-33.701C427.099,241.368,357.552,264.004,308.787,312.769z"/>
            <path d="M247.415,20.958l-34.042,2.458c3.777,52.378-15.565,103.93-53.157,141.523c-36.966,37.461-87.068,56.269-140.971,52.975
			l-2.088,34.071c4.79,0.296,9.54,0.438,14.273,0.438c58.465,0,112.384-22.255,153.003-63.431
            C228.955,144.469,251.91,83.223,247.415,20.958z"/>
            <path d="M256,0C114.842,0,0,114.842,0,256s114.842,256,256,256s256-114.842,256-256S397.158,0,256,0z M256,477.867
			C133.66,477.867,34.133,378.34,34.133,256S133.66,34.133,256,34.133S477.867,133.66,477.867,256S378.34,477.867,256,477.867z"/>
        </g>
    </symbol>

    <symbol id="behance" viewBox="0 0 24 24" preserveAspectRatio="none">
        <g>
            <path d="m12.363 14.947c0-1.848-.879-3.214-2.695-3.726 1.325-.631 2.016-1.587 2.016-3.074 0-2.932-2.192-3.647-4.721-3.647h-6.963v14.721h7.158c2.684 0 5.205-1.283 5.205-4.274zm-9.117-7.934h3.046c1.171 0 2.225.328 2.225 1.682 0 1.25-.82 1.753-1.98 1.753h-3.291zm-.001 9.708v-4.054h3.538c1.429 0 2.333.594 2.333 2.102 0 1.487-1.079 1.952-2.4 1.952z"/>
            <path d="m18.796 19.5c2.554 0 4.208-1.147 5.004-3.585h-2.592c-.279.91-1.429 1.391-2.321 1.391-1.721 0-2.625-1.005-2.625-2.713h7.713c.244-3.418-1.66-6.331-5.18-6.331-3.259 0-5.471 2.442-5.471 5.641 0 3.32 2.096 5.597 5.472 5.597zm-.092-9.026c1.475 0 2.217.864 2.341 2.277h-4.779c.097-1.401 1.03-2.277 2.438-2.277z"/>
            <path d="m15.667 5.273h5.988v1.45h-5.988z"/>
        </g>
    </symbol>

    
</svg>